# xmcd
#
# Track frame offsets: 
#        150
#        19459
#        35394
#        52667
#        67940
#        84837
#        104478
#        120710
#        135373
#        151964
#        170768
#        186946
#
# Disc length: 2789 seconds
#
# Revision: 1
# Processed by: cddbd v1.5.2PL0 Copyright (c) Steve Scherf et al.
# Submitted via: ExactAudioCopy v0.95b3
#
DISCID=940ae30c
DTITLE=Carolyn Dawn Johnson - Dress Rehearsal
DYEAR=2004
DGENRE=Country
TTITLE0=Dress Rehearsal
TTITLE1=He's Mine
TTITLE2=Simple Life
TTITLE3=Die of a Broken Heart
TTITLE4=We Talked
TTITLE5=God Doesn't Make Mistakes
TTITLE6=Squeezin' the Love Outta You
TTITLE7=Head Over High Heels
TTITLE8=My Little Secret
TTITLE9=Just Another Plane
TTITLE10=Life as We Know It
TTITLE11=I'll Let You Go
EXTD=
EXTT0=
EXTT1=
EXTT2=
EXTT3=
EXTT4=
EXTT5=
EXTT6=
EXTT7=
EXTT8=
EXTT9=
EXTT10=
EXTT11=
PLAYORDER=
